<svg width="161" height="50" viewBox="0 0 161 50" fill="none" xmlns="http://www.w3.org/2000/svg">
<g clip-path="url(#clip0_23806_2613)">
<path d="M42.9059 45.4667L40.3684 16.7167C40.1778 14.551 38.3934 12.9167 36.2184 12.9167C35.7187 12.9167 35.3122 13.3229 35.3122 13.8229V18.3052C35.3122 18.749 34.9768 19.1365 34.534 19.1646C34.0486 19.1958 33.6455 18.8115 33.6455 18.3333V8.64583C33.6455 3.87812 29.7674 0 24.9997 0C20.232 0 16.3538 3.87812 16.3538 8.64583V12.9167H13.7809C11.6059 12.9167 9.82154 14.551 9.63092 16.7167L7.09342 45.4667C6.87987 47.8964 8.79581 50 11.2445 50H38.7549C41.2038 50 43.1195 47.896 42.9059 45.4667ZM20.208 44.4792H14.1663C13.7061 44.4792 13.333 44.106 13.333 43.6458C13.333 43.1856 13.7061 42.8125 14.1663 42.8125H20.208C20.6682 42.8125 21.0413 43.1856 21.0413 43.6458C21.0413 44.106 20.6682 44.4792 20.208 44.4792ZM20.208 40.3125H14.1663C13.7061 40.3125 13.333 39.9394 13.333 39.4792C13.333 39.019 13.7061 38.6458 14.1663 38.6458H20.208C20.6682 38.6458 21.0413 39.019 21.0413 39.4792C21.0413 39.9394 20.6682 40.3125 20.208 40.3125ZM31.9788 12.9167H20.5934C20.0934 12.9167 19.6872 13.3229 19.6872 13.8229V18.3052C19.6872 18.749 19.3517 19.1365 18.909 19.1646C18.4236 19.1958 18.0205 18.8115 18.0205 18.3333V8.64583C18.0205 4.79792 21.1517 1.66667 24.9997 1.66667C28.8476 1.66667 31.9788 4.79792 31.9788 8.64583V12.9167Z" fill="#DB3022"/>
</g>
<path d="M60.6033 39.336C65.3073 39.336 68.0793 36.9 68.0793 33.232C68.0793 29.676 65.3353 28.444 61.1913 27.52C58.2233 26.848 57.0753 26.4 57.0753 25C57.0753 23.852 58.1393 22.928 59.9033 22.928C61.7513 22.928 63.6833 23.684 65.3913 25.056L67.5473 22.088C65.5873 20.408 63.1513 19.428 60.0153 19.428C55.8153 19.428 52.9033 21.864 52.9033 25.42C52.9033 29.144 55.7873 30.292 59.8473 31.216C62.7873 31.888 63.9073 32.308 63.9073 33.68C63.9073 34.884 62.8433 35.836 60.7713 35.836C58.3353 35.836 56.2633 34.884 54.4433 33.316L52.0633 36.144C54.3033 38.216 57.2713 39.336 60.6033 39.336ZM79.2167 24.188C77.3687 24.188 75.7727 25 74.8767 26.288V19.428H70.7887V39H74.8767V30.432C74.8767 28.864 76.1927 27.632 77.9007 27.632C79.5247 27.632 80.6727 28.864 80.6727 30.656V39H84.5927V29.788C84.5927 26.484 82.3807 24.188 79.2167 24.188ZM94.4651 39.336C98.8051 39.336 102.361 35.92 102.361 31.748C102.361 27.576 98.8051 24.188 94.4651 24.188C90.1251 24.188 86.5691 27.576 86.5691 31.748C86.5691 35.92 90.1251 39.336 94.4651 39.336ZM94.4651 35.892C92.2811 35.892 90.4891 34.016 90.4891 31.748C90.4891 29.48 92.2811 27.632 94.4651 27.632C96.6491 27.632 98.4411 29.48 98.4411 31.748C98.4411 34.016 96.6491 35.892 94.4651 35.892ZM113.764 24.188C111.748 24.188 110.04 25.084 108.892 26.568V24.524H104.804V43.816H108.892V36.956C110.04 38.44 111.748 39.336 113.764 39.336C117.628 39.336 120.4 36.2 120.4 31.748C120.4 27.324 117.628 24.188 113.764 24.188ZM112.588 35.892C110.404 35.892 108.892 34.184 108.892 31.748C108.892 29.34 110.404 27.632 112.588 27.632C114.828 27.632 116.424 29.34 116.424 31.748C116.424 34.184 114.828 35.892 112.588 35.892ZM129.569 36.172C127.581 36.172 126.209 34.8 125.845 32.84H136.765C136.765 27.464 134.021 24.188 129.485 24.188C125.257 24.188 121.953 27.352 121.953 31.72C121.953 36.172 125.397 39.336 129.709 39.336C131.837 39.336 134.329 38.44 135.617 37.096L133.321 34.744C132.397 35.584 130.885 36.172 129.569 36.172ZM129.513 27.352C131.361 27.352 132.509 28.612 132.845 30.404H125.873C126.321 28.556 127.693 27.352 129.513 27.352ZM143.013 27.24V24.524H138.925V39H143.013V32.084C143.013 29.368 144.945 27.632 147.969 27.632V24.188C145.757 24.188 143.965 25.364 143.013 27.24ZM155.079 39.336C158.635 39.336 160.987 37.516 160.987 34.66C160.987 31.496 158.215 30.656 155.695 30.012C153.763 29.48 152.951 29.256 152.951 28.472C152.951 27.66 153.791 27.128 154.883 27.128C156.227 27.128 157.795 27.772 159.083 28.612L160.595 25.98C158.971 24.916 156.955 24.188 154.883 24.188C151.467 24.188 149.227 26.148 149.227 28.892C149.227 31.748 151.523 32.56 154.519 33.288C156.087 33.68 157.263 34.072 157.263 34.996C157.263 35.836 156.535 36.34 155.163 36.34C153.623 36.34 151.719 35.64 150.207 34.576L148.555 37.152C150.319 38.552 152.783 39.336 155.079 39.336Z" fill="#DB3022"/>
<defs>
<clipPath id="clip0_23806_2613">
<rect width="50" height="50" fill="white"/>
</clipPath>
</defs>
</svg>
