<svg width="53" height="41" viewBox="0 0 53 41" fill="none" xmlns="http://www.w3.org/2000/svg">
<path d="M9.63514 40.7962V38.0825C9.63514 37.0423 8.99886 36.3638 7.90809 36.3638C7.36271 36.3638 6.77188 36.5447 6.36285 37.1327C6.04471 36.6352 5.59022 36.3638 4.90849 36.3638C4.45401 36.3638 3.99952 36.4995 3.63594 36.997V36.4543H2.68152V40.7962H3.63594V38.3991C3.63594 37.6302 4.04497 37.2684 4.68125 37.2684C5.31753 37.2684 5.63567 37.6755 5.63567 38.3991V40.7962H6.59009V38.3991C6.59009 37.6302 7.04457 37.2684 7.6354 37.2684C8.27168 37.2684 8.58982 37.6755 8.58982 38.3991V40.7962H9.63514ZM23.7696 36.4543H22.2244V35.1427H21.2699V36.4543H20.4064V37.3136H21.2699V39.3037C21.2699 40.2987 21.679 40.8867 22.7697 40.8867C23.1788 40.8867 23.6333 40.751 23.9514 40.5701L23.6787 39.756C23.406 39.9369 23.0879 39.9821 22.8606 39.9821C22.4062 39.9821 22.2244 39.7108 22.2244 39.2585V37.3136H23.7696V36.4543ZM31.8594 36.3638C31.3141 36.3638 30.9505 36.6352 30.7232 36.997V36.4543H29.7688V40.7962H30.7232V38.3539C30.7232 37.6302 31.0414 37.2232 31.6322 37.2232C31.814 37.2232 32.0412 37.2684 32.223 37.3136L32.4957 36.4091C32.3139 36.3638 32.0412 36.3638 31.8594 36.3638ZM19.6338 36.8161C19.1793 36.4995 18.543 36.3638 17.8613 36.3638C16.7705 36.3638 16.0434 36.9066 16.0434 37.7659C16.0434 38.4896 16.5888 38.8966 17.5432 39.0323L17.9977 39.0776C18.4976 39.168 18.7703 39.3037 18.7703 39.5298C18.7703 39.8464 18.4067 40.0726 17.7704 40.0726C17.1341 40.0726 16.6342 39.8464 16.3161 39.6203L15.8616 40.344C16.3615 40.7058 17.0432 40.8867 17.725 40.8867C18.9975 40.8867 19.7247 40.2987 19.7247 39.4846C19.7247 38.7157 19.1339 38.3087 18.2249 38.173L17.7704 38.1278C17.3614 38.0825 17.0432 37.9921 17.0432 37.7207C17.0432 37.4041 17.3614 37.2232 17.8613 37.2232C18.4067 37.2232 18.9521 37.4493 19.2248 37.585L19.6338 36.8161ZM44.9941 36.3638C44.4487 36.3638 44.0851 36.6352 43.8578 36.997V36.4543H42.9034V40.7962H43.8578V38.3539C43.8578 37.6302 44.176 37.2232 44.7668 37.2232C44.9486 37.2232 45.1758 37.2684 45.3576 37.3136L45.6303 36.4091C45.4485 36.3638 45.1758 36.3638 44.9941 36.3638ZM32.8139 38.6253C32.8139 39.9369 33.7228 40.8867 35.1317 40.8867C35.768 40.8867 36.2225 40.751 36.677 40.3892L36.2225 39.6203C35.8589 39.8917 35.4953 40.0274 35.0863 40.0274C34.3137 40.0274 33.7683 39.4846 33.7683 38.6253C33.7683 37.8111 34.3137 37.2684 35.0863 37.2232C35.4953 37.2232 35.8589 37.3589 36.2225 37.6302L36.677 36.8613C36.2225 36.4995 35.768 36.3638 35.1317 36.3638C33.7228 36.3638 32.8139 37.3136 32.8139 38.6253ZM41.6309 38.6253V36.4543H40.6764V36.997C40.3583 36.59 39.9038 36.3638 39.313 36.3638C38.0859 36.3638 37.1315 37.3136 37.1315 38.6253C37.1315 39.9369 38.0859 40.8867 39.313 40.8867C39.9493 40.8867 40.4038 40.6606 40.6764 40.2535V40.7962H41.6309V38.6253ZM38.1313 38.6253C38.1313 37.8564 38.6313 37.2232 39.4493 37.2232C40.222 37.2232 40.7673 37.8111 40.7673 38.6253C40.7673 39.3942 40.222 40.0274 39.4493 40.0274C38.6313 39.9821 38.1313 39.3942 38.1313 38.6253ZM26.7238 36.3638C25.4512 36.3638 24.5422 37.2684 24.5422 38.6253C24.5422 39.9821 25.4512 40.8867 26.7692 40.8867C27.4055 40.8867 28.0418 40.7058 28.5417 40.2987L28.0872 39.6203C27.7236 39.8917 27.2691 40.0726 26.8147 40.0726C26.2238 40.0726 25.633 39.8012 25.4967 39.0323H28.7235V38.6705C28.7689 37.2684 27.9509 36.3638 26.7238 36.3638ZM26.7238 37.1779C27.3146 37.1779 27.7236 37.5398 27.8145 38.2182H25.5421C25.633 37.6302 26.042 37.1779 26.7238 37.1779ZM50.4024 38.6253V34.7356H49.448V36.997C49.1299 36.59 48.6754 36.3638 48.0845 36.3638C46.8574 36.3638 45.903 37.3136 45.903 38.6253C45.903 39.9369 46.8574 40.8867 48.0845 40.8867C48.7208 40.8867 49.1753 40.6606 49.448 40.2535V40.7962H50.4024V38.6253ZM46.9029 38.6253C46.9029 37.8564 47.4028 37.2232 48.2209 37.2232C48.9935 37.2232 49.5389 37.8111 49.5389 38.6253C49.5389 39.3942 48.9935 40.0274 48.2209 40.0274C47.4028 39.9821 46.9029 39.3942 46.9029 38.6253ZM14.9981 38.6253V36.4543H14.0436V36.997C13.7255 36.59 13.271 36.3638 12.6802 36.3638C11.4531 36.3638 10.4987 37.3136 10.4987 38.6253C10.4987 39.9369 11.4531 40.8867 12.6802 40.8867C13.3165 40.8867 13.7709 40.6606 14.0436 40.2535V40.7962H14.9981V38.6253ZM11.4531 38.6253C11.4531 37.8564 11.953 37.2232 12.7711 37.2232C13.5437 37.2232 14.0891 37.8111 14.0891 38.6253C14.0891 39.3942 13.5437 40.0274 12.7711 40.0274C11.953 39.9821 11.4531 39.3942 11.4531 38.6253Z" fill="black"/>
<path d="M33.6318 3.48279H19.3156V29.0822H33.6318V3.48279Z" fill="#FF5F00"/>
<path d="M20.2246 16.2823C20.2246 11.081 22.6788 6.46771 26.451 3.48261C23.6787 1.31163 20.1791 0 16.3615 0C7.31721 0 0 7.28182 0 16.2823C0 25.2829 7.31721 32.5647 16.3615 32.5647C20.1791 32.5647 23.6787 31.253 26.451 29.0821C22.6788 26.1422 20.2246 21.4836 20.2246 16.2823Z" fill="#EB001B"/>
<path d="M52.9476 16.2823C52.9476 25.2829 45.6304 32.5647 36.5862 32.5647C32.7685 32.5647 29.2689 31.253 26.4966 29.0821C30.3143 26.097 32.723 21.4836 32.723 16.2823C32.723 11.081 30.2688 6.46771 26.4966 3.48261C29.2689 1.31163 32.7685 0 36.5862 0C45.6304 0 52.9476 7.32705 52.9476 16.2823Z" fill="#F79E1B"/>
</svg>
