<?xml version="1.0" encoding="UTF-8"?>
<!DOCTYPE svg PUBLIC "-//W3C//DTD SVG 1.1//EN" "http://www.w3.org/Graphics/SVG/1.1/DTD/svg11.dtd">
<!-- Creator: CorelDRAW 2019 -->
<svg xmlns="http://www.w3.org/2000/svg" xml:space="preserve" width="8.4666mm" height="8.4666mm" version="1.1" style="shape-rendering:geometricPrecision; text-rendering:geometricPrecision; image-rendering:optimizeQuality; fill-rule:evenodd; clip-rule:evenodd"
viewBox="0 0 18.2 18.2"
 xmlns:xlink="http://www.w3.org/1999/xlink"
 xmlns:xodm="http://www.corel.com/coreldraw/odm/2003">
 <defs>
  <style type="text/css">
   <![CDATA[
    .str0 {stroke:white;stroke-width:0.76;stroke-linecap:round;stroke-linejoin:round;stroke-miterlimit:22.9256}
    .fil1 {fill:none}
    .fil0 {fill:#F36F45;fill-rule:nonzero}
   ]]>
  </style>
 </defs>
 <g id="Layer_x0020_1">
  <metadata id="CorelCorpID_0Corel-Layer"/>
  <circle class="fil0" cx="9.1" cy="9.1" r="9.1"/>
  <g id="_544237040">
   <line class="fil1 str0" x1="10.8" y1="8.11" x2="7.39" y2= "6.14" />
   <path class="fil1 str0" d="M12.51 10.61l0 -3.03c-0,-0.13 -0.04,-0.26 -0.1,-0.38 -0.07,-0.12 -0.16,-0.21 -0.28,-0.28l-2.65 -1.52c-0.12,-0.07 -0.25,-0.1 -0.38,-0.1 -0.13,0 -0.26,0.04 -0.38,0.1l-2.65 1.52c-0.12,0.07 -0.21,0.16 -0.28,0.28 -0.07,0.11 -0.1,0.25 -0.1,0.38l0 3.03c0,0.13 0.04,0.26 0.1,0.38 0.07,0.11 0.16,0.21 0.28,0.28l2.65 1.52c0.12,0.07 0.25,0.1 0.38,0.1 0.13,0 0.26,-0.04 0.38,-0.1l2.65 -1.52c0.12,-0.07 0.21,-0.16 0.28,-0.28 0.07,-0.12 0.1,-0.25 0.1,-0.38z"/>
   <polyline class="fil1 str0" points="5.79,7.18 9.1,9.1 12.41,7.18 "/>
   <line class="fil1 str0" x1="9.1" y1="12.92" x2="9.1" y2= "9.09" />
  </g>
 </g>
</svg>
