<?xml version="1.0" encoding="UTF-8"?>
<!DOCTYPE svg PUBLIC "-//W3C//DTD SVG 1.1//EN" "http://www.w3.org/Graphics/SVG/1.1/DTD/svg11.dtd">
<!-- Creator: CorelDRAW 2019 -->
<svg xmlns="http://www.w3.org/2000/svg" xml:space="preserve" width="8.4666mm" height="8.4666mm" version="1.1" style="shape-rendering:geometricPrecision; text-rendering:geometricPrecision; image-rendering:optimizeQuality; fill-rule:evenodd; clip-rule:evenodd"
viewBox="0 0 38.33 38.33"
 xmlns:xlink="http://www.w3.org/1999/xlink"
 xmlns:xodm="http://www.corel.com/coreldraw/odm/2003">
 <defs>
  <style type="text/css">
   <![CDATA[
    .str0 {stroke:white;stroke-width:1.6;stroke-linecap:round;stroke-linejoin:round;stroke-miterlimit:22.9256}
    .fil1 {fill:none}
    .fil0 {fill:#F36F45;fill-rule:nonzero}
   ]]>
  </style>
 </defs>
 <g id="Layer_x0020_1">
  <metadata id="CorelCorpID_0Corel-Layer"/>
  <circle class="fil0" cx="19.17" cy="19.17" r="19.17"/>
  <g id="_759393064">
   <path class="fil1 str0" d="M26.35 17.57c0,5.59 -7.19,10.38 -7.19,10.38 0,0 -7.19,-4.79 -7.19,-10.38 0,-1.91 0.76,-3.73 2.11,-5.08 1.35,-1.35 3.18,-2.11 5.08,-2.11 1.91,0 3.73,0.76 5.08,2.11 1.35,1.35 2.11,3.18 2.11,5.08z"/>
   <path class="fil1 str0" d="M19.17 19.97c1.32,0 2.4,-1.07 2.4,-2.4 0,-1.32 -1.07,-2.4 -2.4,-2.4 -1.32,0 -2.4,1.07 -2.4,2.4 0,1.32 1.07,2.4 2.4,2.4z"/>
  </g>
 </g>
</svg>
